<svg width="220" height="130" viewBox="0 0 220 130" fill="none" xmlns="http://www.w3.org/2000/svg">
<path d="M50.9654 126.027V114.391H52.3745V120.164H52.5109L57.7381 114.391H59.579L54.6927 119.641L59.579 126.027H57.8745L53.829 120.618L52.3745 122.255V126.027H50.9654ZM62.562 120.777V126.027H61.2211V114.391H62.562V118.664H62.6756C62.8802 118.213 63.187 117.855 63.5961 117.59C64.009 117.321 64.5582 117.186 65.2438 117.186C65.8385 117.186 66.3593 117.306 66.8063 117.544C67.2533 117.779 67.5999 118.141 67.8461 118.63C68.0961 119.114 68.2211 119.732 68.2211 120.482V126.027H66.8802V120.573C66.8802 119.88 66.7003 119.344 66.3404 118.965C65.9843 118.582 65.49 118.391 64.8574 118.391C64.4181 118.391 64.0241 118.484 63.6756 118.669C63.3309 118.855 63.0582 119.126 62.8574 119.482C62.6605 119.838 62.562 120.27 62.562 120.777ZM74.2197 126.209C73.4318 126.209 72.7405 126.022 72.1458 125.647C71.5549 125.272 71.0928 124.747 70.7594 124.073C70.4299 123.399 70.2651 122.611 70.2651 121.709C70.2651 120.8 70.4299 120.007 70.7594 119.328C71.0928 118.65 71.5549 118.124 72.1458 117.749C72.7405 117.374 73.4318 117.186 74.2197 117.186C75.0075 117.186 75.6969 117.374 76.2878 117.749C76.8825 118.124 77.3447 118.65 77.6742 119.328C78.0075 120.007 78.1742 120.8 78.1742 121.709C78.1742 122.611 78.0075 123.399 77.6742 124.073C77.3447 124.747 76.8825 125.272 76.2878 125.647C75.6969 126.022 75.0075 126.209 74.2197 126.209ZM74.2197 125.005C74.8181 125.005 75.3106 124.851 75.6969 124.544C76.0833 124.238 76.3693 123.834 76.5549 123.334C76.7405 122.834 76.8333 122.292 76.8333 121.709C76.8333 121.126 76.7405 120.582 76.5549 120.078C76.3693 119.575 76.0833 119.167 75.6969 118.857C75.3106 118.546 74.8181 118.391 74.2197 118.391C73.6212 118.391 73.1288 118.546 72.7424 118.857C72.356 119.167 72.07 119.575 71.8844 120.078C71.6988 120.582 71.606 121.126 71.606 121.709C71.606 122.292 71.6988 122.834 71.8844 123.334C72.07 123.834 72.356 124.238 72.7424 124.544C73.1288 124.851 73.6212 125.005 74.2197 125.005ZM75.4015 116.255L74.2197 114.664L73.0378 116.255H71.7651V116.164L73.606 113.8H74.8333L76.6742 116.164V116.255H75.4015ZM81.562 120.777V126.027H80.2211V117.3H81.5165V118.664H81.6302C81.8347 118.221 82.1453 117.864 82.562 117.596C82.9787 117.323 83.5165 117.186 84.1756 117.186C84.7665 117.186 85.2836 117.308 85.7268 117.55C86.1699 117.789 86.5146 118.152 86.7609 118.641C87.0071 119.126 87.1302 119.739 87.1302 120.482V126.027H85.7893V120.573C85.7893 119.887 85.6112 119.353 85.2552 118.971C84.8991 118.584 84.4105 118.391 83.7893 118.391C83.3612 118.391 82.9787 118.484 82.6415 118.669C82.3082 118.855 82.0449 119.126 81.8518 119.482C81.6586 119.838 81.562 120.27 81.562 120.777ZM93.1032 129.482C92.4555 129.482 91.8986 129.399 91.4327 129.232C90.9668 129.069 90.5786 128.853 90.268 128.584C89.9611 128.319 89.7168 128.035 89.535 127.732L90.6032 126.982C90.7244 127.141 90.8778 127.323 91.0634 127.527C91.249 127.736 91.5028 127.916 91.8248 128.067C92.1505 128.222 92.5767 128.3 93.1032 128.3C93.8077 128.3 94.3892 128.13 94.8475 127.789C95.3058 127.448 95.535 126.914 95.535 126.186V124.414H95.4214C95.3229 124.573 95.1827 124.77 95.0009 125.005C94.8229 125.236 94.5653 125.442 94.2282 125.624C93.8949 125.802 93.4441 125.891 92.8759 125.891C92.1714 125.891 91.5388 125.724 90.9782 125.391C90.4214 125.058 89.9801 124.573 89.6543 123.936C89.3324 123.3 89.1714 122.527 89.1714 121.618C89.1714 120.724 89.3286 119.946 89.643 119.283C89.9574 118.616 90.3949 118.101 90.9555 117.738C91.5161 117.37 92.1638 117.186 92.8986 117.186C93.4668 117.186 93.9176 117.281 94.2509 117.471C94.588 117.656 94.8456 117.868 95.0236 118.107C95.2055 118.342 95.3456 118.535 95.4441 118.686H95.5805V117.3H96.8759V126.277C96.8759 127.027 96.7055 127.637 96.3646 128.107C96.0274 128.58 95.5729 128.927 95.0009 129.147C94.4327 129.37 93.8002 129.482 93.1032 129.482ZM93.0577 124.686C93.5956 124.686 94.0502 124.563 94.4214 124.317C94.7926 124.071 95.0748 123.717 95.268 123.255C95.4611 122.792 95.5577 122.239 95.5577 121.596C95.5577 120.967 95.463 120.412 95.2736 119.931C95.0842 119.45 94.8039 119.073 94.4327 118.8C94.0615 118.527 93.6032 118.391 93.0577 118.391C92.4896 118.391 92.0161 118.535 91.6373 118.823C91.2623 119.111 90.9801 119.497 90.7907 119.982C90.6051 120.467 90.5123 121.005 90.5123 121.596C90.5123 122.202 90.607 122.738 90.7964 123.203C90.9896 123.666 91.2736 124.029 91.6486 124.294C92.0274 124.556 92.4971 124.686 93.0577 124.686ZM107.376 126.209C106.558 126.209 105.853 126.016 105.262 125.63C104.671 125.243 104.217 124.711 103.899 124.033C103.58 123.355 103.421 122.58 103.421 121.709C103.421 120.823 103.584 120.041 103.91 119.363C104.24 118.681 104.698 118.149 105.285 117.766C105.876 117.38 106.565 117.186 107.353 117.186C107.967 117.186 108.52 117.3 109.012 117.527C109.505 117.755 109.908 118.073 110.223 118.482C110.537 118.891 110.732 119.368 110.808 119.914H109.467C109.365 119.516 109.137 119.164 108.785 118.857C108.437 118.546 107.967 118.391 107.376 118.391C106.853 118.391 106.395 118.527 106.001 118.8C105.611 119.069 105.306 119.45 105.086 119.942C104.87 120.431 104.762 121.005 104.762 121.664C104.762 122.338 104.868 122.925 105.08 123.425C105.296 123.925 105.599 124.313 105.99 124.59C106.383 124.866 106.846 125.005 107.376 125.005C107.724 125.005 108.041 124.944 108.325 124.823C108.609 124.702 108.849 124.527 109.046 124.3C109.243 124.073 109.383 123.8 109.467 123.482H110.808C110.732 123.997 110.544 124.461 110.245 124.874C109.95 125.283 109.558 125.609 109.069 125.851C108.584 126.09 108.02 126.209 107.376 126.209ZM116.313 126.209C115.526 126.209 114.834 126.022 114.24 125.647C113.649 125.272 113.187 124.747 112.853 124.073C112.524 123.399 112.359 122.611 112.359 121.709C112.359 120.8 112.524 120.007 112.853 119.328C113.187 118.65 113.649 118.124 114.24 117.749C114.834 117.374 115.526 117.186 116.313 117.186C117.101 117.186 117.791 117.374 118.382 117.749C118.976 118.124 119.438 118.65 119.768 119.328C120.101 120.007 120.268 120.8 120.268 121.709C120.268 122.611 120.101 123.399 119.768 124.073C119.438 124.747 118.976 125.272 118.382 125.647C117.791 126.022 117.101 126.209 116.313 126.209ZM116.313 125.005C116.912 125.005 117.404 124.851 117.791 124.544C118.177 124.238 118.463 123.834 118.649 123.334C118.834 122.834 118.927 122.292 118.927 121.709C118.927 121.126 118.834 120.582 118.649 120.078C118.463 119.575 118.177 119.167 117.791 118.857C117.404 118.546 116.912 118.391 116.313 118.391C115.715 118.391 115.223 118.546 114.836 118.857C114.45 119.167 114.164 119.575 113.978 120.078C113.793 120.582 113.7 121.126 113.7 121.709C113.7 122.292 113.793 122.834 113.978 123.334C114.164 123.834 114.45 124.238 114.836 124.544C115.223 124.851 115.715 125.005 116.313 125.005ZM115.7 116.118L117.086 113.482H118.654L116.882 116.118H115.7ZM130.11 126.209C129.383 126.209 128.741 126.025 128.184 125.658C127.627 125.287 127.192 124.764 126.877 124.09C126.563 123.412 126.406 122.611 126.406 121.686C126.406 120.77 126.563 119.974 126.877 119.3C127.192 118.626 127.629 118.105 128.19 117.738C128.75 117.37 129.398 117.186 130.133 117.186C130.701 117.186 131.15 117.281 131.48 117.471C131.813 117.656 132.067 117.868 132.241 118.107C132.419 118.342 132.557 118.535 132.656 118.686H132.769V114.391H134.11V126.027H132.815V124.686H132.656C132.557 124.846 132.417 125.046 132.235 125.289C132.053 125.527 131.794 125.741 131.457 125.931C131.12 126.116 130.671 126.209 130.11 126.209ZM130.292 125.005C130.83 125.005 131.285 124.864 131.656 124.584C132.027 124.3 132.309 123.908 132.502 123.408C132.696 122.904 132.792 122.323 132.792 121.664C132.792 121.012 132.697 120.442 132.508 119.953C132.319 119.461 132.038 119.078 131.667 118.806C131.296 118.529 130.838 118.391 130.292 118.391C129.724 118.391 129.25 118.537 128.872 118.828C128.497 119.116 128.214 119.508 128.025 120.005C127.839 120.497 127.747 121.05 127.747 121.664C127.747 122.285 127.841 122.849 128.031 123.357C128.224 123.861 128.508 124.262 128.883 124.561C129.262 124.857 129.732 125.005 130.292 125.005ZM144.616 116.914H145.798C145.798 117.489 145.722 117.972 145.571 118.363C145.419 118.749 145.154 119.041 144.775 119.238C144.396 119.431 143.866 119.527 143.184 119.527V118.596C143.654 118.596 143.987 118.539 144.184 118.425C144.385 118.308 144.506 118.126 144.548 117.88C144.593 117.63 144.616 117.308 144.616 116.914ZM142.252 122.459V117.3H143.593V126.027H142.252V124.55H142.161C141.957 124.993 141.639 125.37 141.207 125.681C140.775 125.988 140.23 126.141 139.571 126.141C139.025 126.141 138.54 126.022 138.116 125.783C137.692 125.541 137.358 125.177 137.116 124.692C136.874 124.203 136.752 123.588 136.752 122.846V117.3H138.093V122.755C138.093 123.391 138.271 123.899 138.627 124.277C138.987 124.656 139.446 124.846 140.002 124.846C140.336 124.846 140.675 124.76 141.019 124.59C141.368 124.419 141.66 124.158 141.894 123.806C142.133 123.453 142.252 123.005 142.252 122.459ZM138.434 116.255L137.389 116.209C137.389 115.63 137.553 115.156 137.883 114.789C138.216 114.417 138.627 114.232 139.116 114.232C139.332 114.232 139.523 114.27 139.69 114.346C139.857 114.417 140.016 114.501 140.167 114.596C140.319 114.69 140.474 114.775 140.633 114.851C140.796 114.923 140.98 114.959 141.184 114.959C141.4 114.959 141.582 114.876 141.73 114.709C141.881 114.539 141.957 114.334 141.957 114.096L142.98 114.186C142.98 114.777 142.813 115.247 142.48 115.596C142.15 115.944 141.741 116.118 141.252 116.118C140.991 116.118 140.775 116.082 140.605 116.01C140.434 115.935 140.283 115.849 140.15 115.755C140.017 115.66 139.877 115.577 139.73 115.505C139.582 115.429 139.4 115.391 139.184 115.391C138.968 115.391 138.788 115.476 138.644 115.647C138.504 115.813 138.434 116.016 138.434 116.255ZM151.205 114.391H152.546V123.755C152.546 124.179 152.594 124.476 152.688 124.647C152.783 124.817 152.978 124.899 153.274 124.891C153.433 124.883 153.55 124.872 153.626 124.857C153.705 124.838 153.777 124.819 153.842 124.8L154.115 125.959C153.997 125.993 153.849 126.024 153.671 126.05C153.493 126.08 153.308 126.096 153.115 126.096C152.478 126.096 152.001 125.921 151.683 125.573C151.365 125.224 151.205 124.739 151.205 124.118V114.391ZM155.346 126.027V117.3H156.687V126.027H155.346ZM156.028 115.846C155.767 115.846 155.541 115.757 155.352 115.578C155.166 115.4 155.073 115.186 155.073 114.936C155.073 114.686 155.166 114.472 155.352 114.294C155.541 114.116 155.767 114.027 156.028 114.027C156.289 114.027 156.513 114.116 156.698 114.294C156.888 114.472 156.982 114.686 156.982 114.936C156.982 115.186 156.888 115.4 156.698 115.578C156.513 115.757 156.289 115.846 156.028 115.846ZM162.802 126.209C161.961 126.209 161.236 126.024 160.626 125.652C160.02 125.277 159.552 124.755 159.223 124.084C158.897 123.41 158.734 122.626 158.734 121.732C158.734 120.838 158.897 120.05 159.223 119.368C159.552 118.683 160.01 118.149 160.598 117.766C161.188 117.38 161.878 117.186 162.666 117.186C163.12 117.186 163.569 117.262 164.012 117.414C164.455 117.565 164.859 117.811 165.223 118.152C165.586 118.489 165.876 118.936 166.092 119.493C166.308 120.05 166.416 120.736 166.416 121.55V122.118H159.688V120.959H165.052C165.052 120.467 164.954 120.027 164.757 119.641C164.563 119.255 164.287 118.95 163.927 118.726C163.571 118.503 163.151 118.391 162.666 118.391C162.132 118.391 161.669 118.524 161.279 118.789C160.893 119.05 160.596 119.391 160.387 119.811C160.179 120.232 160.075 120.683 160.075 121.164V121.936C160.075 122.596 160.188 123.154 160.416 123.613C160.647 124.067 160.967 124.414 161.376 124.652C161.785 124.887 162.26 125.005 162.802 125.005C163.154 125.005 163.473 124.955 163.757 124.857C164.044 124.755 164.293 124.603 164.501 124.402C164.709 124.198 164.87 123.944 164.984 123.641L166.279 124.005C166.143 124.444 165.914 124.83 165.592 125.164C165.27 125.493 164.872 125.751 164.399 125.936C163.925 126.118 163.393 126.209 162.802 126.209ZM163.779 116.255L162.598 114.664L161.416 116.255H160.143V116.164L161.984 113.8H163.211L165.052 116.164V116.255H163.779ZM162.598 128.914C162.336 128.914 162.111 128.825 161.921 128.647C161.736 128.469 161.643 128.255 161.643 128.005C161.643 127.755 161.736 127.541 161.921 127.363C162.111 127.185 162.336 127.096 162.598 127.096C162.859 127.096 163.082 127.185 163.268 127.363C163.457 127.541 163.552 127.755 163.552 128.005C163.552 128.255 163.457 128.469 163.268 128.647C163.082 128.825 162.859 128.914 162.598 128.914ZM173.955 122.459V117.3H175.296V126.027H173.955V124.55H173.865C173.66 124.993 173.342 125.37 172.91 125.681C172.478 125.988 171.933 126.141 171.274 126.141C170.728 126.141 170.243 126.022 169.819 125.783C169.395 125.541 169.062 125.177 168.819 124.692C168.577 124.203 168.455 123.588 168.455 122.846V117.3H169.796V122.755C169.796 123.391 169.974 123.899 170.33 124.277C170.69 124.656 171.149 124.846 171.705 124.846C172.039 124.846 172.378 124.76 172.722 124.59C173.071 124.419 173.363 124.158 173.597 123.806C173.836 123.453 173.955 123.005 173.955 122.459Z" fill="#6C728B"/>
<g opacity="0.5">
<path d="M179.01 8.4718C178.991 8.41369 176.449 1.76968 171.132 0.23943C170.917 0.181319 170.702 0.142578 170.487 0.142578C169.705 0.142578 168.942 0.549354 168.492 1.22731C167.925 2.09898 168.023 3.24182 168.727 4.01663C168.903 4.22971 169.313 5.21759 169.333 6.82532C169.353 8.29746 169.059 9.67275 168.551 10.4476C167.613 11.8422 165.091 14.3797 158.561 15.6582C157.466 15.8712 156.312 15.9875 155.139 15.9875C150.545 15.9875 146.029 14.3216 143.038 13.0819C141.356 12.3846 139.773 11.6485 138.248 10.9318C137.505 10.5832 136.821 10.2732 136.136 9.96331C134.24 9.11102 132.402 8.31683 130.604 8.04565C127.3 5.9924 124.426 4.98515 121.845 4.98515C121.337 4.98515 120.848 5.02389 120.379 5.10137C118.111 5.45003 115.628 6.34107 113.204 7.21273C111.327 7.89069 109.372 8.58802 107.769 8.91731C107.515 8.8592 107.261 8.78172 106.987 8.72361C104.817 8.18124 102.353 7.56139 99.7728 7.30958C99.2645 7.25147 98.717 7.2321 98.1696 7.2321C97.0161 7.2321 95.7845 7.34832 94.5137 7.56139C92.9106 7.83258 91.2488 8.27809 89.6261 8.87857C88.1012 9.44031 86.6936 10.0795 85.5792 10.7575C84.8167 11.2224 83.9761 11.7647 83.2918 12.5202C83.1158 12.617 82.9399 12.7139 82.803 12.7914C82.803 12.7914 82.7835 12.7914 82.7835 12.8107C82.2556 13.1207 81.6496 13.5274 80.848 14.0892L80.3006 14.4766C78.9125 15.4451 77.1725 16.6461 75.0611 17.9245C68.5312 21.8954 62.1187 24.3942 55.4716 25.5564C53.888 25.8276 52.3631 25.9632 50.975 25.9632C46.8303 25.9632 44.4256 24.7816 43.1353 23.7743C41.102 22.2053 40.5351 19.2417 40.9065 18.4862C41.3366 17.6339 41.1998 16.5879 40.5351 15.8712C40.0854 15.387 39.4403 15.1158 38.7951 15.1158C38.5018 15.1158 38.2086 15.1739 37.9349 15.2708C35.3738 16.278 33.4383 18.0601 32.2066 20.617C30.7794 23.5612 30.3493 28.1714 31.1704 31.5805C32.6954 37.8371 37.1333 42.8153 43.6827 45.624C47.8078 47.3867 52.6954 48.3165 57.8176 48.3165C58.3064 48.3165 58.7756 48.3165 59.2644 48.2971C58.541 50.2729 57.9936 52.3261 58.0327 53.9145C58.0522 54.8442 58.6192 55.6578 59.499 56.0065C59.7922 56.1227 60.0855 56.1808 60.3787 56.1808C60.9848 56.1808 61.5713 55.9483 62.021 55.5222C63.2526 54.3406 64.8753 53.7014 66.7326 53.7014C66.889 53.7014 67.0454 53.7014 67.2018 53.7208C68.8636 53.9919 70.5254 54.1275 71.9721 54.1275C72.1089 54.1275 72.2262 54.1275 72.3631 54.1275C71.542 59.5512 72.2458 64.355 74.4745 68.4615C75.0415 69.5269 75.7063 70.5148 76.4101 71.3865C78.1501 73.5753 80.3788 75.4736 83.0767 77.0426C83.8392 77.4881 84.6212 77.8949 85.4423 78.2823C85.5205 78.321 85.5987 78.3598 85.6769 78.3791C85.7551 78.3985 85.8529 78.4372 85.9311 78.4566C86.1071 78.4953 86.2634 78.5147 86.4394 78.5147C86.7131 78.5147 86.9672 78.476 87.2214 78.3791C87.632 78.2435 87.9839 77.9917 88.2576 77.6624C88.4726 77.7593 88.7072 77.8561 88.9418 77.953L89.2742 78.1079C89.5088 78.2242 89.763 78.3404 90.0171 78.4566H90.0367C90.0562 78.4566 90.0562 78.476 90.0758 78.476C90.8578 78.844 91.718 79.1927 92.6564 79.4057C95.8236 80.2968 98.8148 81.0329 101.708 81.6527C103.448 82.0207 105.13 82.35 106.791 82.6406C108.414 82.9893 110.056 83.3186 111.757 83.6091C112.285 83.706 112.793 83.7834 113.321 83.8609C113.849 83.9384 114.377 84.0159 114.905 84.074C114.514 84.5389 114.221 85.0812 114.045 85.6817C113.673 86.9408 113.947 88.3354 114.787 89.517C115.315 90.2531 116.058 90.9117 117.055 91.5509C118.541 92.5001 120.516 93.3136 122.627 93.8366C124.172 94.224 125.755 94.4371 127.222 94.4371C127.788 94.4371 128.316 94.3983 128.825 94.3402C129.919 94.2046 130.838 93.9722 131.601 93.5848C132.832 92.9649 133.673 91.9964 133.966 90.8148C134.279 89.5751 134.084 88.3161 133.38 87.057L133.263 86.8633C133.223 86.7858 133.165 86.7083 133.126 86.6309C133.126 86.3984 133.126 86.1079 133.126 85.7786C133.126 84.5776 133.145 82.9699 132.852 81.3428C133.126 81.2072 133.399 81.0716 133.673 80.936C133.908 80.8004 134.162 80.6842 134.396 80.5486C135.1 80.1612 135.765 79.7738 136.371 79.4057C136.43 79.367 136.469 79.3476 136.528 79.3089C136.645 79.212 136.782 79.1346 136.899 79.0571C137.016 78.9796 137.134 78.9021 137.251 78.8053C137.798 78.4179 138.385 77.9724 139.03 77.3719C139.304 77.1201 139.577 76.8295 139.871 76.5196C139.988 76.4227 140.086 76.3259 140.183 76.229C140.281 76.1322 140.359 76.0547 140.418 75.9578C143.351 75.0087 146.635 72.9942 150.193 69.9531C150.33 69.8368 150.467 69.7206 150.623 69.585C150.76 69.4688 150.877 69.3526 151.014 69.2364C151.093 69.1782 151.171 69.1008 151.229 69.0233C151.288 68.9652 151.327 68.9264 151.386 68.8683C153.145 67.2218 154.612 65.4204 155.726 63.5996C157.446 60.7909 158.248 57.9629 158.111 55.2123C157.955 52.0162 157.231 49.0332 155.882 46.147C156.058 46.1082 156.254 46.0501 156.43 46.0114C156.723 45.9339 157.212 45.8371 157.916 45.8371C158.834 45.8371 159.792 45.992 160.692 46.3019C160.946 46.3794 161.2 46.4182 161.454 46.4182C162.06 46.4182 162.647 46.1857 163.096 45.7596C163.722 45.1591 163.957 44.2487 163.703 43.4158C163.214 41.8661 162.354 39.7548 161.317 37.6047C163.331 37.1398 165.814 36.3069 168.355 34.8541C172.031 32.7428 176.919 28.6556 179.245 21.14C180.555 16.956 180.457 12.4427 179.01 8.4718Z" fill="#3C3C3C"/>
<path d="M176.802 9.26592C176.528 8.52985 174.319 3.59043 170.487 2.48633C171.953 4.09406 172.227 9.16907 170.526 11.7453C168.825 14.3022 165.228 16.7428 159.03 17.9438C153.146 19.0867 147.261 17.3433 142.139 15.2126C139.597 14.1472 137.232 12.985 135.179 12.0552C133.126 11.1255 131.367 10.4088 129.842 10.2732V10.2925C126.87 8.37489 123.644 6.92212 120.77 7.38701C116.782 8.00686 111.601 10.6412 107.75 11.2998C105.267 10.6993 102.491 9.92451 99.5972 9.63396C98.1114 9.49837 96.5278 9.59522 94.9833 9.8664C93.4389 10.1376 91.8944 10.5637 90.5063 11.0674C89.1182 11.571 87.8474 12.1521 86.8504 12.7526C85.9315 13.2949 85.2473 13.8179 84.8171 14.4378C84.778 14.4572 84.7389 14.4765 84.6998 14.4765C84.4652 14.554 84.2697 14.6702 84.0351 14.8058C83.5464 15.0964 82.9794 15.4838 82.2365 15.9874C80.7897 16.9947 78.8151 18.3893 76.3322 19.9002C71.3664 22.922 64.4261 26.3505 55.9217 27.842C49.1181 29.0236 44.4651 27.7452 41.7281 25.6144C38.991 23.4837 37.8766 19.4159 38.8542 17.4595C37.1924 18.0988 35.511 19.2997 34.3771 21.6435C33.2627 23.9098 32.7544 27.9389 33.5169 31.0575C34.9245 36.8686 39.0497 41.1107 44.6802 43.5126C49.9783 45.7789 56.4886 46.4956 62.9598 45.7014C61.8259 48.1808 60.4182 51.7643 60.4573 53.8757C62.3733 52.0161 64.9148 51.2413 67.5346 51.4156C69.3723 51.7062 71.3664 51.8805 73.1455 51.7837C73.9471 51.7256 74.69 51.6287 75.3547 51.4544C73.6929 58.1565 74.4554 63.3865 76.606 67.3574C77.1143 68.2871 77.6812 69.1588 78.3069 69.953C80.5356 72.7811 83.4877 74.7762 86.4985 76.1902L87.1436 74.8343C87.6324 74.9118 88.1016 75.0667 88.5512 75.2411C89.0009 75.4541 89.4701 75.6479 89.9393 75.8222C91.0342 76.3452 92.1094 76.8876 93.302 77.1781C97.8963 78.4565 102.569 79.5606 107.281 80.3742C112.031 81.3814 116.86 82.2725 121.591 82.0982C121.591 82.0982 121.591 82.0788 121.611 82.0788C121.689 82.0788 121.767 82.0788 121.846 82.0982C122.471 80.8003 123.312 80.0836 124.974 79.9093C125.032 79.9093 125.091 79.9287 125.15 79.9481C125.443 80.0255 125.677 80.103 125.892 80.1999C126.088 80.2773 126.284 80.3936 126.499 80.4904C126.733 80.626 126.948 80.7616 127.241 80.9553C127.3 80.9359 127.378 80.9166 127.437 80.9166C127.437 80.9166 127.437 80.9166 127.457 80.9166C130.154 80.3355 132.872 78.9021 135.198 77.5074C136.176 76.8101 137.095 76.2483 138.248 74.9505C138.678 74.5631 138.815 74.3694 139.03 74.0208C143.058 72.9554 147.105 69.6431 148.727 68.2484C150.721 66.5632 152.481 64.6068 153.771 62.4954C155.14 60.2485 155.941 57.8078 155.844 55.4059C155.629 50.6021 153.908 46.9605 152.246 44.3455C153.283 44.3649 154.495 44.2099 155.883 43.8419C157.271 43.4738 159.363 43.4545 161.513 44.1712C160.868 42.0985 159.402 38.7862 157.818 35.9194C160.34 35.687 163.801 34.8734 167.222 32.917C171.21 30.6313 175.101 26.7573 177.036 20.5201C178.288 16.3554 177.936 12.3652 176.802 9.26592ZM144.602 28.5781C144.583 28.5975 144.583 28.6168 144.563 28.6362C144.544 28.6168 144.544 28.5975 144.544 28.5781C144.563 28.5781 144.583 28.5781 144.602 28.5781Z" fill="#A7A7A7"/>
<path d="M153.732 62.457C152.461 64.5684 150.682 66.5248 148.688 68.21C147.065 69.5853 143.018 72.917 138.991 73.9823C138.776 74.331 138.639 74.5247 138.209 74.9121C137.075 76.2099 136.137 76.7717 135.159 77.469C132.833 78.8637 130.115 80.3164 127.417 80.8782H127.398C127.339 80.8975 127.261 80.9169 127.202 80.9169C126.928 80.7232 126.694 80.5682 126.459 80.452C126.264 80.3552 126.068 80.2583 125.853 80.1615C125.638 80.0646 125.384 79.9871 125.11 79.9096C125.052 79.8903 124.993 79.8903 124.934 79.8709C123.273 80.0452 122.432 80.7426 121.806 82.0597C121.728 82.0597 121.65 82.0597 121.572 82.0404L121.552 82.0597C116.801 82.2341 111.992 81.343 107.241 80.3358C102.53 79.5222 97.8571 78.4181 93.2627 77.1397C92.0701 76.8491 90.9949 76.3068 89.9001 75.7838C89.4309 75.5901 88.9812 75.3964 88.512 75.2027C88.0428 75.0283 87.5931 74.8927 87.1043 74.7959L86.4592 76.1518C83.4484 74.7378 80.4963 72.7233 78.2676 69.9146C90.7016 73.1688 104.993 74.5053 118.013 72.8782L138.072 69.1591C141.161 68.0163 148.473 66.0018 153.732 62.457Z" fill="#787878"/>
<path d="M131.347 88.2191C131.074 87.7349 130.839 87.3862 130.819 86.9407C130.761 85.8366 130.937 83.6865 130.546 81.7107C130.35 80.7228 130.018 79.7349 129.392 78.9408C129.236 78.7471 129.06 78.5533 128.884 78.3984C129.333 77.7785 129.412 77.0037 129.177 76.3645C128.864 75.5122 128.141 74.8149 127.202 74.6406C126.44 74.4856 125.56 74.6987 124.896 75.2991C124.348 75.7834 124.016 76.6163 124.211 77.5461C123.136 77.9141 122.198 78.6115 121.435 79.4638C120.145 80.8778 119.265 82.718 118.659 84.1707C118.561 84.4225 118.288 84.5388 117.779 84.7906C117.271 85.0424 116.606 85.4879 116.352 86.3596C116.157 86.9988 116.372 87.6574 116.743 88.1804C117.134 88.7227 117.681 89.1876 118.366 89.6138C119.715 90.4661 121.494 91.1634 123.234 91.6089C125.15 92.0932 127.066 92.2288 128.591 92.0544C129.353 91.9576 130.037 91.8026 130.585 91.5314C131.132 91.2603 131.582 90.8341 131.738 90.2724C131.914 89.4007 131.621 88.7227 131.347 88.2191Z" fill="#787878"/>
<path d="M122.335 86.7266C121.885 86.7847 122.119 87.3464 122.217 87.6176C122.589 88.4893 122.96 89.419 123.547 90.1551C123.899 90.2132 124.192 89.8064 124.505 89.6708C125.15 89.1866 125.893 88.7217 126.323 88.0244C126.362 87.637 125.815 87.5982 125.56 87.4626C124.524 87.1333 123.429 86.8234 122.335 86.7266Z" fill="#3C3C3C"/>
<path d="M126.734 75.5903C125.913 75.571 125.033 76.2102 125.092 77.0818C125.189 77.5661 125.854 77.3724 126.186 77.4692C126.793 77.4499 127.32 77.7598 127.907 77.8567C128.357 77.7598 128.376 77.1206 128.239 76.7719C128.024 76.1327 127.438 75.571 126.734 75.5903Z" fill="#C7C7C7"/>
<path d="M119.617 86.5529C119.226 86.5529 118.835 86.9403 119.265 87.4827C119.812 88.1025 121.024 88.8386 122.197 89.0904C121.904 87.9863 121.689 86.8435 121.67 86.3011C121.122 86.1849 120.242 86.3592 119.617 86.5529Z" fill="#3C3C3C"/>
<path d="M125.345 89.6719C126.244 89.8075 129.04 90.0012 129.47 89.3813C129.235 88.8002 127.769 87.9479 127.241 87.793C126.518 88.4128 125.892 89.2845 125.345 89.6719Z" fill="#3C3C3C"/>
<path d="M130.623 89.9634C130.584 90.1377 130.428 90.312 130.056 90.5057C129.685 90.6994 129.118 90.8544 128.453 90.9319C127.28 91.0675 125.755 90.99 124.191 90.6607C124.895 90.1571 126.127 89.6147 126.655 89.053C126.948 88.8399 127.046 88.3556 127.398 88.2588C128.14 88.5493 128.786 89.0336 129.372 89.576C129.489 89.6728 129.724 90.0602 129.744 89.7309C129.665 88.8012 128.883 88.0845 128.121 87.6583C126.166 86.5929 123.937 85.9731 121.708 85.8956C121.493 85.8956 121.278 85.8956 121.044 85.915C120.281 85.9731 119.499 86.1668 118.952 86.6898C118.815 86.806 118.698 86.961 118.6 87.1159C119.089 86.9222 119.597 86.806 120.105 86.7285C120.438 86.7285 121.161 86.1668 121.435 86.3992C121.415 87.4065 121.767 88.1232 122.197 89.0142C122.295 89.1692 122.588 89.7116 122.94 90.3895C121.474 89.9827 119.988 89.3629 118.932 88.6849C118.404 88.3363 117.974 87.9876 117.701 87.6583C117.661 87.6196 117.642 87.6002 117.622 87.5615C117.368 87.2128 117.31 86.9416 117.388 86.6898C117.544 86.1668 117.818 86.0312 118.248 85.7988C118.678 85.5857 119.343 85.3339 119.656 84.6172C120.242 83.2031 121.102 81.4792 122.236 80.2201C123.312 79.0385 124.563 78.2831 126.127 78.4381C126.224 78.4574 126.322 78.4574 126.4 78.4768C127.378 78.6511 128.004 79.0579 128.473 79.6584C128.942 80.2589 129.235 81.0724 129.411 81.9441C129.763 83.7261 129.587 85.7407 129.665 87.0191C129.704 87.8133 130.095 88.375 130.35 88.8012C130.623 89.2079 130.76 89.4597 130.623 89.9634Z" fill="#C7C7C7"/>
<path d="M126.146 78.399C124.778 78.9995 123.468 80.1229 122.901 81.6532C122.432 82.9123 121.767 85.198 121.044 85.9147C120.926 86.0309 120.809 86.1084 120.672 86.1277C120.242 86.1858 119.577 86.3795 118.952 86.6895C118.463 86.9413 117.994 87.2512 117.72 87.6386C117.681 87.5999 117.661 87.5805 117.642 87.5418C117.388 87.1931 117.329 86.9219 117.407 86.6701C117.564 86.1471 117.837 86.0115 118.267 85.7791C118.698 85.566 119.362 85.3142 119.675 84.5975C120.262 83.1834 121.122 81.4595 122.256 80.2004C123.311 78.9995 124.563 78.244 126.146 78.399Z" fill="#BCBCBC"/>
<path d="M121.141 86.127C120.809 87.1148 121.278 88.1221 121.728 89.0325C122.197 89.9429 122.745 90.8339 122.842 91.1051C122.901 91.2794 123.057 91.415 123.253 91.4538C123.448 91.4925 123.644 91.4344 123.781 91.3182C123.976 91.1245 124.895 90.6015 125.736 90.001C126.576 89.4005 127.456 88.6645 127.515 87.5797L126.401 87.5022C126.381 87.9671 125.834 88.5676 125.071 89.11C124.543 89.4974 124.054 89.8073 123.585 90.1366C123.331 89.633 123.038 89.1487 122.725 88.5482C122.295 87.7153 122.06 86.863 122.197 86.5144L121.141 86.127Z" fill="#5B5B5B"/>
<path d="M121.533 85.7394C119.793 85.7781 118.64 86.3399 118.366 87.3665C119.969 86.5142 122.589 86.6692 124.896 87.3665C126.05 87.7152 127.144 88.1801 127.985 88.6837C128.826 89.1873 129.432 89.7297 129.608 90.059C130.429 89.7878 129.334 88.1801 128.552 87.7152C127.614 87.1728 126.46 86.6304 125.209 86.3011C123.899 85.9525 122.706 85.72 121.533 85.7394Z" fill="#787878"/>
<path d="M85.4027 20.3252C85.129 22.4172 84.4838 24.6642 84.1515 25.9233C84.0342 26.33 83.8778 26.9886 83.6627 27.7828C82.9394 30.4365 81.5318 34.5624 78.7556 35.5115C70.2512 35.3566 65.5004 41.0708 63.8777 44.1701C57.2697 45.1773 50.5444 44.4993 45.2658 42.2524C39.9676 39.9861 36.1357 36.2089 35.0018 30.9014C34.4935 28.5189 34.4349 26.6012 34.6499 25.071C34.7868 24.1025 35.0214 23.2695 35.3342 22.5528C35.8425 21.3712 36.6441 20.7514 37.3674 19.996C37.4065 22.5141 38.2863 25.0903 40.7301 26.9886C43.8972 29.4486 49.039 30.7465 56.1358 29.5068C64.9139 27.9765 72.0498 24.4511 77.0938 21.3712C79.6354 19.8216 81.649 18.4076 83.0762 17.4003C83.7996 16.8967 84.3666 16.5093 84.7576 16.2769C84.8162 16.2381 84.8357 16.2381 84.8748 16.2188C85.1094 16.5093 85.3245 16.8386 85.4223 17.4584C85.5982 18.272 85.5396 19.2793 85.4027 20.3252Z" fill="white"/>
<path d="M83.6823 27.7841C82.9589 30.4378 81.5513 34.5637 78.7751 35.5128C70.2707 35.3579 65.52 41.0721 63.8973 44.1714C57.2892 45.1786 50.5639 44.5006 45.2853 42.2537C39.9872 39.9874 36.1553 36.2102 35.0214 30.9027C34.513 28.5202 34.4544 26.6025 34.6694 25.0723C39.1856 34.0213 52.0497 48.8202 83.6823 27.7841Z" fill="#E6E6E6"/>
<path d="M176.078 13.6826C176.215 15.5808 176.019 17.6535 175.374 19.7648C173.556 25.6146 169.978 29.14 166.263 31.2708C162.549 33.4015 158.658 34.0988 156.43 34.1376C154.142 31.0771 153.497 29.1013 150.955 28.1715C148.668 26.6994 145.188 28.9076 143.174 27.1061C143.116 26.9512 143.038 26.7769 142.959 26.6219C141.063 22.5348 135.96 16.3944 131.62 12.0361C132.441 12.3266 133.38 12.714 134.396 13.1789C136.43 14.0893 138.795 15.2709 141.415 16.3556C146.635 18.5445 152.832 20.4234 159.206 19.1837C165.677 17.9053 169.685 15.329 171.698 12.3073C173.165 10.0797 173.223 7.73588 172.676 5.56641C173.614 6.47681 174.572 7.69714 175.217 9.49857C175.648 10.7576 175.96 12.1717 176.078 13.6826Z" fill="white"/>
<path d="M78.0912 38.6506C79.2838 38.7087 82.3532 37.8758 82.7051 39.4254C81.7667 42.7378 79.577 47.4641 76.9573 49.7498C73.2623 50.9701 65.8331 49.7304 62.7246 51.067C63.7021 48.1614 64.9729 46.9024 65.2466 46.205C67.4167 42.699 69.88 39.7547 74.0834 39.0962C74.8654 38.9218 77.3287 38.7281 78.0912 38.6506Z" fill="#787878"/>
<path d="M159.479 42.6402C158.306 42.6014 157.133 42.5046 156.038 42.8145C154.064 43.3569 152.578 43.3569 151.659 43.1438C151.209 42.5433 150.818 42.0397 150.467 41.6135C150.447 40.5288 150.252 39.4441 149.821 38.4562C149.157 36.9066 147.866 35.2407 146.009 33.9623C145.853 33.6524 145.735 33.3424 145.696 33.0713C146.811 32.8582 149.254 32.9357 150.858 33.5749C151.62 33.9042 153.086 34.8727 154.748 36.5192C156.234 38.0107 157.915 40.0445 159.479 42.6402Z" fill="#787878"/>
<path d="M151.504 48.8409C151.309 48.3373 150.761 47.7562 150.116 47.3107C149.666 47.0008 149.197 46.749 148.787 46.594C148.122 47.6981 147.262 48.4729 146.304 48.6279C149.236 44.1146 148.845 40.7054 147.946 38.5166C147.418 37.2382 146.167 35.766 144.212 34.5844C142.257 33.3835 140.008 32.8024 138.659 33.3447C137.017 34.0033 135.003 35.2236 133.068 36.3084C131.133 37.3737 129.275 38.3423 127.555 38.3229C126.695 38.3035 125.6 38.0517 124.29 37.6837C122.98 37.335 121.494 36.8895 119.989 36.4827C118.503 36.0759 116.998 35.7079 115.707 35.5142C114.417 35.3205 113.342 35.3399 112.775 35.5336C112.13 35.766 110.839 36.4827 109.373 37.49C107.907 38.4779 106.225 39.7563 104.622 41.1122C103.019 42.4681 101.494 43.9015 100.341 45.2381C99.1872 46.5553 98.4247 47.795 98.2879 48.5117C97.8578 50.623 98.718 53.8772 99.9692 56.7828C101.201 59.6883 102.824 62.2839 103.488 63.1168L103.508 63.1362C105.013 65.0926 109.686 68.3468 114.671 70.8262C119.656 73.2862 125.072 75.0102 127.75 74.5647C130.663 74.0998 135.297 70.865 138.718 67.1459C140.419 65.2863 141.866 63.2912 142.706 61.5285C143.41 60.037 143.664 58.7392 143.488 57.8094C137.897 59.1847 133.655 57.5576 131.328 56.1435C130.057 57.4026 127.946 58.3518 127.34 58.7004C125.013 59.9595 122.354 61.0055 120.067 61.6641C116.841 62.5938 113.146 62.8457 109.999 62.4001C106.851 61.9546 104.114 60.7924 103.215 58.468C102.491 56.6278 102.55 54.807 103.351 53.5867C104.622 51.6884 105.561 51.8046 106.636 52.2889C106.069 52.56 105.228 53.2767 104.74 54.2646C104.251 55.2525 104.075 56.4535 104.642 57.9062C105.209 59.359 107.32 60.4631 110.214 60.8699C113.107 61.296 116.626 61.0442 119.617 60.1726C121.787 59.5527 124.368 58.5261 126.577 57.3445C128.786 56.1629 131.445 54.3421 132.071 53.238C132.403 53.7997 132.403 54.3615 132.208 54.8845C134.397 56.2017 138.444 57.7513 143.958 56.1048C147.047 55.175 149.158 53.7804 150.351 52.4051C151.563 50.9717 151.817 49.6932 151.504 48.8409ZM132.286 51.7077C133.029 50.2937 133.166 48.4923 133.029 46.9427C132.873 45.3737 132.384 43.9984 132.188 43.6497C133.615 43.2817 134.456 45.5286 134.573 46.8071C134.769 49.1121 134.397 50.9136 132.286 51.7077Z" fill="#F7F7F7"/>
<path d="M121.044 41.9621C120.281 41.3423 118.971 40.7031 117.915 40.2575C116.86 39.8314 115.765 39.4827 114.807 39.3084C114.318 39.2309 113.888 39.1728 113.458 39.2115C113.047 39.2309 112.617 39.3084 112.246 39.6183C111.542 40.1994 111.073 41.1486 110.76 42.1946C110.447 43.2599 110.31 44.4415 110.897 45.4488C110.936 45.5263 110.995 45.5844 111.053 45.6425C111.757 46.2623 112.637 46.3204 113.712 46.3592C114.787 46.3979 116.019 46.3011 117.231 46.1461C118.424 45.9911 119.577 45.7587 120.457 45.4681C121.004 45.2938 121.806 45.0614 122.119 44.4803C122.666 43.4149 121.767 42.5626 121.044 41.9621Z" fill="#787878"/>
<path d="M144.642 37.8765C144.153 36.9854 143.43 36.1332 142.354 35.9395C141.572 35.8039 140.81 36.0363 140.067 36.4043C139.324 36.7724 138.581 37.2954 137.916 37.8571C137.252 38.4382 136.646 39.0774 136.196 39.7167C135.746 40.3559 135.394 40.9564 135.414 41.6731C135.414 42.1961 135.805 42.6222 136.157 42.8159C136.528 43.0096 136.919 43.0871 137.349 43.1452C138.21 43.242 139.265 43.2033 140.321 43.0483C141.377 42.8934 142.452 42.6416 143.332 42.2929C143.762 42.1186 144.153 41.9249 144.485 41.6731C144.818 41.4212 145.13 41.1113 145.228 40.6271C145.424 39.7167 145.13 38.7481 144.642 37.8765Z" fill="#787878"/>
<path d="M132.579 21.024C131.934 20.3073 130.096 19.1838 128.024 18.3509C125.951 17.5373 123.625 16.9756 121.982 17.0724C122.823 15.116 127.457 16.1427 128.806 16.6463C131.406 17.6148 132.911 19.3 132.579 21.024Z" fill="#787878"/>
<path d="M137.7 25.6719C136.977 26.3111 135.022 27.2409 132.871 27.822C130.721 28.4031 128.355 28.713 126.732 28.4225C127.338 30.4757 132.07 29.9333 133.477 29.5847C136.156 28.9261 137.837 27.4152 137.7 25.6719Z" fill="#3C3C3C"/>
<path d="M110.058 28.8691C109.334 29.5084 107.379 30.4381 105.229 31.0192C103.078 31.6003 100.713 31.9103 99.0898 31.6197C99.6959 33.673 104.427 33.1306 105.835 32.7819C108.513 32.1233 110.194 30.6125 110.058 28.8691Z" fill="#3C3C3C"/>
<path d="M97.4268 23.1927C96.4884 21.8561 97.8178 19.9966 98.9126 19.3574C101.024 18.1177 103.331 18.8537 103.624 19.7642C102.588 19.8223 100.985 20.229 99.9488 20.752C98.8931 21.3138 97.6809 22.631 97.4268 23.1927Z" fill="#787878"/>
<path d="M176.078 13.6816C176.215 15.5799 176.02 17.6525 175.375 19.7639C173.556 25.6137 169.979 29.1391 166.264 31.2698C162.549 33.4006 158.659 34.0979 156.43 34.1367C154.143 31.0761 153.498 29.1004 150.956 28.1706C148.669 26.6985 145.189 28.9067 143.175 27.1052C143.116 26.9503 143.038 26.7759 142.96 26.621C162.354 29.1972 171.758 20.4806 176.078 13.6816Z" fill="#E6E6E6"/>
<path d="M87.5734 62.5544C85.9311 62.5544 84.2889 61.9927 82.9595 60.8305C81.806 59.8426 81.1217 58.4673 81.024 56.9564C80.9262 55.4455 81.415 53.9928 82.4316 52.8693C84.1325 50.9516 87.0651 50.7579 89.0005 52.4431C90.5841 53.8184 90.7405 56.2203 89.3525 57.7893C88.199 59.0871 86.2049 59.2034 84.9145 58.0799C84.3867 57.615 84.0739 56.9952 84.0348 56.2978C83.9957 55.6005 84.2107 54.9419 84.6799 54.4189C85.0709 53.9928 85.5988 53.7216 86.1853 53.6828C86.7718 53.6441 87.3387 53.8378 87.7689 54.2252C88.5313 54.8838 88.6096 56.046 87.9448 56.8014C87.7689 56.9952 87.4756 57.0145 87.2801 56.8402C87.0846 56.6659 87.0651 56.3753 87.241 56.1816C87.5734 55.8136 87.5343 55.2518 87.1628 54.9419C86.9087 54.7288 86.5958 54.6126 86.2635 54.632C85.9311 54.6514 85.6379 54.8063 85.4228 55.0388C85.1296 55.3681 84.9927 55.7942 85.0123 56.2397C85.0318 56.6852 85.2469 57.0726 85.5792 57.3632C86.4981 58.1574 87.8861 58.0605 88.6877 57.1695C89.7239 55.9879 89.6066 54.1865 88.4336 53.1598C86.9087 51.8233 84.5626 51.9783 83.2136 53.4891C82.3729 54.4383 81.9624 55.6392 82.0406 56.8983C82.1188 58.1574 82.6858 59.3002 83.6438 60.1331C86.1462 62.322 89.9781 62.0702 92.1873 59.5908C94.983 56.4334 94.6701 51.6102 91.4834 48.8403C91.2879 48.6659 91.2684 48.3754 91.4443 48.1817C91.6203 47.988 91.9135 47.9686 92.109 48.1429C95.6868 51.2616 96.0387 56.6659 92.9106 60.2106C91.4639 61.7602 89.5284 62.5544 87.5734 62.5544Z" fill="#787878"/>
</g>
<path d="M203.768 67.4297H198.109C197.262 67.4297 196.575 68.04 196.575 68.7928C196.575 69.5455 197.262 70.1558 198.109 70.1558H203.768C204.615 70.1558 205.302 69.5455 205.302 68.7928C205.302 68.04 204.615 67.4297 203.768 67.4297Z" fill="#6C728B"/>
<path d="M187.445 67.4297H181.801C180.954 67.4297 180.268 68.04 180.268 68.7928C180.268 69.5455 180.954 70.1558 181.801 70.1558H187.445C188.292 70.1558 188.979 69.5455 188.979 68.7928C188.979 68.04 188.292 67.4297 187.445 67.4297Z" fill="#6C728B"/>
<path d="M192.776 72.1699C191.929 72.1699 191.242 72.7802 191.242 73.533V78.5627C191.242 79.3154 191.929 79.9257 192.776 79.9257C193.623 79.9257 194.31 79.3154 194.31 78.5627V73.533C194.31 72.7799 193.623 72.1699 192.776 72.1699Z" fill="#6C728B"/>
<path d="M192.777 57.6758C191.93 57.6758 191.243 58.2861 191.243 59.0388V64.0549C191.243 64.8077 191.93 65.418 192.777 65.418C193.624 65.418 194.311 64.8077 194.311 64.0549V59.0388C194.311 58.2861 193.624 57.6758 192.777 57.6758Z" fill="#6C728B"/>
<path d="M35.0775 74.4746C32.0706 74.4746 29.6328 76.6412 29.6328 79.3135C29.6328 81.9858 32.0706 84.1524 35.0775 84.1524C38.0843 84.1524 40.5221 81.9858 40.5221 79.3135C40.5221 76.6412 38.0843 74.4746 35.0775 74.4746ZM35.0775 81.4399C33.7646 81.4399 32.7002 80.4939 32.7002 79.3271C32.7002 79.3227 32.7002 79.3179 32.7002 79.3135C32.7002 78.1542 33.7577 77.2144 35.0621 77.2144C35.0671 77.2144 35.0725 77.2144 35.0775 77.2144C36.3903 77.2144 37.4547 78.1603 37.4547 79.3271C37.4547 80.4939 36.3903 81.4399 35.0775 81.4399Z" fill="#6C728B"/>
<path d="M20.1989 18.3594H14.5396C13.6926 18.3594 13.0059 18.9697 13.0059 19.7224C13.0059 20.4752 13.6926 21.0855 14.5396 21.0855H20.1989C21.0459 21.0855 21.7326 20.4752 21.7326 19.7224C21.7326 18.9697 21.0459 18.3594 20.1989 18.3594Z" fill="#6C728B"/>
<path d="M7.17772 18.3594H1.5337C0.686715 18.3594 0 18.9697 0 19.7224C0 20.4752 0.686715 21.0855 1.5337 21.0855H7.17772C8.02471 21.0855 8.71143 20.4752 8.71143 19.7224C8.71143 18.9697 8.02471 18.3594 7.17772 18.3594Z" fill="#6C728B"/>
<path d="M10.8589 21.627C10.0119 21.627 9.3252 22.2373 9.3252 22.99V28.0197C9.3252 28.7725 10.0119 29.3828 10.8589 29.3828C11.7059 29.3828 12.3926 28.7725 12.3926 28.0197V22.99C12.3926 22.2369 11.7059 21.627 10.8589 21.627Z" fill="#6C728B"/>
<path d="M10.8589 10.0703C10.0119 10.0703 9.3252 10.6806 9.3252 11.4334V16.4494C9.3252 17.2022 10.0119 17.8125 10.8589 17.8125C11.7059 17.8125 12.3926 17.2022 12.3926 16.4494V11.4334C12.3926 10.6806 11.7059 10.0703 10.8589 10.0703Z" fill="#6C728B"/>
<path d="M214.555 14.6484C211.548 14.6484 209.11 16.815 209.11 19.4873C209.11 22.1596 211.548 24.3262 214.555 24.3262C217.562 24.3262 220 22.1596 220 19.4873C220 16.815 217.562 14.6484 214.555 14.6484ZM214.555 21.6137C213.242 21.6137 212.178 20.6677 212.178 19.5009C212.178 19.4965 212.178 19.4917 212.178 19.4873C212.178 18.328 213.235 17.3882 214.54 17.3882C214.545 17.3882 214.55 17.3882 214.555 17.3882C215.868 17.3882 216.932 18.3342 216.932 19.5009C216.932 20.6677 215.868 21.6137 214.555 21.6137Z" fill="#6C728B"/>
</svg>
